<?xml version="1.0" encoding="UTF-8" standalone="no"?>
<!-- Created with Inkscape (http://www.inkscape.org/) -->

<svg
   width="200"
   height="200"
   viewBox="0 0 52.916668 52.916666"
   version="1.1"
   id="svg8"
   inkscape:version="1.4.3 (0d15f75042, 2025-12-25)"
   sodipodi:docname="courtesy.svg"
   xml:space="preserve"
   xmlns:inkscape="http://www.inkscape.org/namespaces/inkscape"
   xmlns:sodipodi="http://sodipodi.sourceforge.net/DTD/sodipodi-0.dtd"
   xmlns="http://www.w3.org/2000/svg"
   xmlns:svg="http://www.w3.org/2000/svg"
   xmlns:rdf="http://www.w3.org/1999/02/22-rdf-syntax-ns#"
   xmlns:cc="http://creativecommons.org/ns#"
   xmlns:dc="http://purl.org/dc/elements/1.1/"><defs
     id="defs2"><rect
       x="18.622405"
       y="74.489621"
       width="178.93288"
       height="47.348386"
       id="rect1" /><inkscape:path-effect
       effect="envelope"
       id="path-effect4658"
       is_visible="true"
       yy="true"
       xx="true"
       bendpath1="m -199.08406,108.42369 h 7.0057"
       bendpath2="m -192.07836,108.42369 v 6.75242"
       bendpath3="m -199.08406,115.17611 h 7.0057"
       bendpath4="m -199.08406,108.42369 v 6.75242" /><inkscape:path-effect
       effect="bend_path"
       id="path-effect4656"
       is_visible="true"
       bendpath="m -192.00142,114.60623 c 2.12577,-0.53066 4.48261,0.85111 7.0057,0"
       prop_scale="1"
       scale_y_rel="false"
       vertical="false"
       bendpath-nodetypes="cc" /><inkscape:path-effect
       effect="bounding_box"
       id="path-effect4654"
       is_visible="true"
       linkedpath=""
       visualbounds="false" /></defs><sodipodi:namedview
     id="base"
     pagecolor="#ffffff"
     bordercolor="#666666"
     borderopacity="1.0"
     inkscape:pageopacity="0.0"
     inkscape:pageshadow="2"
     inkscape:zoom="2.8809859"
     inkscape:cx="57.619164"
     inkscape:cy="109.33757"
     inkscape:document-units="px"
     inkscape:current-layer="layer1"
     showgrid="false"
     fit-margin-top="0"
     fit-margin-left="0"
     fit-margin-right="0"
     fit-margin-bottom="0"
     inkscape:window-width="1366"
     inkscape:window-height="696"
     inkscape:window-x="0"
     inkscape:window-y="0"
     inkscape:window-maximized="1"
     showguides="false"
     inkscape:object-nodes="true"
     units="px"
     inkscape:snap-page="true"
     inkscape:showpageshadow="0"
     inkscape:pagecheckerboard="0"
     inkscape:deskcolor="#505050" /><metadata
     id="metadata5"><rdf:RDF><cc:Work
         rdf:about=""><dc:format>image/svg+xml</dc:format><dc:type
           rdf:resource="http://purl.org/dc/dcmitype/StillImage" /></cc:Work></rdf:RDF></metadata><g
     inkscape:label="Layer 1"
     inkscape:groupmode="layer"
     id="layer1"
     transform="translate(98.048812,-95.14345)"><g
       style="stroke-width:0.5"
       transform="matrix(2,0,0,2,-98.048812,95.143449)"
       id="g5175"><rect
         y="-1.110223e-16"
         x="0"
         height="26.458334"
         width="26.458334"
         id="rect5163"
         style="opacity:1;fill:#222222;fill-opacity:1;fill-rule:nonzero;stroke:none;stroke-width:0.25;stroke-linecap:butt;stroke-linejoin:round;stroke-miterlimit:4;stroke-dasharray:none;stroke-dashoffset:0;stroke-opacity:0.90944878;paint-order:normal"
         rx="1.984375"
         ry="1.984375" /><rect
         style="opacity:1;fill:#0098ff;fill-opacity:1;fill-rule:nonzero;stroke:none;stroke-width:0.25;stroke-linecap:butt;stroke-linejoin:round;stroke-miterlimit:4;stroke-dasharray:none;stroke-dashoffset:0;stroke-opacity:0.90944878;paint-order:normal"
         id="rect5165"
         width="23.8125"
         height="23.8125"
         x="1.322917"
         y="1.322917"
         rx="1.3229166"
         ry="1.3229166" /><path
         style="opacity:1;fill:#222222;fill-opacity:1;fill-rule:nonzero;stroke:none;stroke-width:0.24999997;stroke-linecap:butt;stroke-linejoin:round;stroke-miterlimit:4;stroke-dasharray:none;stroke-dashoffset:0;stroke-opacity:0.90944878;paint-order:normal"
         d="m 0.72760492,18.520836 v 4.167188 c 0,1.539081 1.23904398,2.778124 2.77812498,2.778124 H 22.952604 c 1.539081,0 2.778125,-1.239043 2.778125,-2.778124 v -4.167188 z"
         id="rect5205-3-6"
         inkscape:connector-curvature="0" /><text
         xml:space="preserve"
         transform="matrix(0.13229167,0,0,0.13229167,-1.1836832,12.487245)"
         id="text1"
         style="font-size:37.3333px;line-height:0;text-align:center;writing-mode:lr-tb;direction:ltr;white-space:pre;shape-inside:url(#rect1);display:inline;fill:#000000"
         x="83.562073"
         y="0"
         inkscape:label="label"><tspan
           x="20.224964"
           y="84.308893"
           id="tspan4"><tspan
             style="font-weight:500;font-family:'Futura PT';-inkscape-font-specification:'Futura PT Medium';fill:#ffffff"
             id="tspan1">COURTESY</tspan></tspan></text></g><g
       style="fill:#222222;fill-opacity:1"
       id="g7"
       transform="matrix(0.07360028,0,0,0.07360028,-90.248131,94.463979)"><g
         id="g2"
         style="fill:#222222;fill-opacity:1">
	<g
   id="g1"
   style="fill:#222222;fill-opacity:1">
		<path
   d="m 208.057,362.515 c -15.603,-10.082 -36.424,-5.606 -46.506,9.996 10.082,-15.603 5.606,-36.424 -9.996,-46.506 -15.603,-10.082 -36.424,-5.606 -46.506,9.996 10.082,-15.603 5.606,-36.424 -9.996,-46.506 -15.603,-10.082 -36.424,-5.606 -46.506,9.996 l -34.484,53.367 c -10.082,15.603 -5.606,36.424 9.996,46.506 15.603,10.082 36.424,5.606 46.506,-9.996 -10.082,15.603 -5.606,36.424 9.996,46.506 15.603,10.082 36.424,5.606 46.506,-9.996 -10.082,15.603 -5.606,36.424 9.996,46.506 15.602,10.082 36.424,5.606 46.506,-9.996 l 34.484,-53.367 c 10.082,-15.603 5.606,-36.425 -9.996,-46.506 z"
   id="path1"
   style="fill:#222222;fill-opacity:1" />
	</g>
</g><g
         id="g4"
         style="fill:#222222;fill-opacity:1">
	<g
   id="g3"
   style="fill:#222222;fill-opacity:1">
		<path
   d="m 436.601,270.49 -0.902,-0.587 -171.389,-111.592 -27.309,41.448 c -12.201,18.777 -32.847,29.983 -55.264,29.983 -12.686,0 -25.037,-3.647 -35.716,-10.548 -30.505,-19.712 -39.287,-60.566 -19.603,-91.029 L 142.823,102.69 85.266,88.843 0,264.877 l 20.909,17.996 0.565,-0.875 c 12.19,-18.865 32.885,-30.127 55.358,-30.125 12.686,0.001 25.036,3.649 35.713,10.548 10.11,6.532 18.066,15.492 23.267,26.008 11.812,0.444 23.255,4.053 33.235,10.502 10.11,6.532 18.066,15.492 23.267,26.007 11.812,0.444 23.254,4.051 33.235,10.503 30.505,19.711 39.287,60.566 19.575,91.071 l -18.284,28.296 28.307,18.767 c 15.603,10.082 36.424,5.606 46.506,-9.996 10.082,-15.603 5.606,-36.424 -9.996,-46.506 l 11.442,7.394 c 15.603,10.082 36.424,5.606 46.506,-9.996 10.082,-15.603 5.606,-36.423 -9.995,-46.505 l 11.441,7.393 c 15.603,10.082 36.424,5.606 46.506,-9.996 10.081,-15.602 5.608,-36.42 -9.992,-46.503 l 11.438,7.391 c 15.603,10.082 36.424,5.606 46.506,-9.996 9.845,-15.233 5.807,-35.434 -8.908,-45.765 z"
   id="path2"
   style="fill:#222222;fill-opacity:1" />
	</g>
</g><g
         id="g6"
         style="fill:#222222;fill-opacity:1">
	<g
   id="g5"
   style="fill:#222222;fill-opacity:1">
		<path
   d="m 467.068,33.035 -246.101,7.839 -67.449,104.74 c -10.082,15.603 -5.606,36.424 9.996,46.506 15.603,10.082 36.424,5.606 46.506,-9.996 l 45.013,-68.316 9.854,6.416 L 442.512,235.876 512,184.419 Z"
   id="path4"
   style="fill:#222222;fill-opacity:1" />
	</g>
</g></g></g><style
     type="text/css"
     id="style1">
	.st0{fill:#000000;}
</style></svg>
