<?xml version="1.0" encoding="UTF-8" standalone="no"?>
<!-- Created with Inkscape (http://www.inkscape.org/) -->

<svg
   width="200"
   height="200"
   viewBox="0 0 52.916668 52.916666"
   version="1.1"
   id="svg8"
   inkscape:version="1.4.3 (0d15f75042, 2025-12-25)"
   sodipodi:docname="diversity.svg"
   xml:space="preserve"
   xmlns:inkscape="http://www.inkscape.org/namespaces/inkscape"
   xmlns:sodipodi="http://sodipodi.sourceforge.net/DTD/sodipodi-0.dtd"
   xmlns="http://www.w3.org/2000/svg"
   xmlns:svg="http://www.w3.org/2000/svg"
   xmlns:rdf="http://www.w3.org/1999/02/22-rdf-syntax-ns#"
   xmlns:cc="http://creativecommons.org/ns#"
   xmlns:dc="http://purl.org/dc/elements/1.1/"><defs
     id="defs2"><rect
       x="18.622405"
       y="74.489621"
       width="178.93288"
       height="47.348386"
       id="rect1" /><inkscape:path-effect
       effect="envelope"
       id="path-effect4658"
       is_visible="true"
       yy="true"
       xx="true"
       bendpath1="m -199.08406,108.42369 h 7.0057"
       bendpath2="m -192.07836,108.42369 v 6.75242"
       bendpath3="m -199.08406,115.17611 h 7.0057"
       bendpath4="m -199.08406,108.42369 v 6.75242" /><inkscape:path-effect
       effect="bend_path"
       id="path-effect4656"
       is_visible="true"
       bendpath="m -192.00142,114.60623 c 2.12577,-0.53066 4.48261,0.85111 7.0057,0"
       prop_scale="1"
       scale_y_rel="false"
       vertical="false"
       bendpath-nodetypes="cc" /><inkscape:path-effect
       effect="bounding_box"
       id="path-effect4654"
       is_visible="true"
       linkedpath=""
       visualbounds="false" /><style
       id="style1-7">.cls-1{fill:none;}</style></defs><sodipodi:namedview
     id="base"
     pagecolor="#ffffff"
     bordercolor="#666666"
     borderopacity="1.0"
     inkscape:pageopacity="0.0"
     inkscape:pageshadow="2"
     inkscape:zoom="1.7088228"
     inkscape:cx="96.557699"
     inkscape:cy="74.905367"
     inkscape:document-units="px"
     inkscape:current-layer="layer1"
     showgrid="false"
     fit-margin-top="0"
     fit-margin-left="0"
     fit-margin-right="0"
     fit-margin-bottom="0"
     inkscape:window-width="1366"
     inkscape:window-height="696"
     inkscape:window-x="0"
     inkscape:window-y="0"
     inkscape:window-maximized="1"
     showguides="false"
     inkscape:object-nodes="true"
     units="px"
     inkscape:snap-page="true"
     inkscape:showpageshadow="0"
     inkscape:pagecheckerboard="0"
     inkscape:deskcolor="#505050" /><metadata
     id="metadata5"><rdf:RDF><cc:Work
         rdf:about=""><dc:format>image/svg+xml</dc:format><dc:type
           rdf:resource="http://purl.org/dc/dcmitype/StillImage" /></cc:Work></rdf:RDF></metadata><g
     inkscape:label="Layer 1"
     inkscape:groupmode="layer"
     id="layer1"
     transform="translate(98.048812,-95.14345)"><rect
       y="95.143448"
       x="-98.048813"
       height="52.916668"
       width="52.916668"
       id="rect5163"
       style="fill:#222222;fill-opacity:1;fill-rule:nonzero;stroke:none;stroke-width:0.5;stroke-linecap:butt;stroke-linejoin:round;stroke-miterlimit:4;stroke-dasharray:none;stroke-dashoffset:0;stroke-opacity:0.909449;paint-order:normal"
       rx="3.96875"
       ry="3.96875" /><rect
       style="fill:#bf72ba;fill-opacity:1;fill-rule:nonzero;stroke:none;stroke-width:0.5;stroke-linecap:butt;stroke-linejoin:round;stroke-miterlimit:4;stroke-dasharray:none;stroke-dashoffset:0;stroke-opacity:0.909449;paint-order:normal"
       id="rect5165"
       width="47.625"
       height="47.625"
       x="-95.402977"
       y="97.789284"
       rx="2.6458333"
       ry="2.6458333" /><path
       style="fill:#222222;fill-opacity:1;fill-rule:nonzero;stroke:none;stroke-width:0.5;stroke-linecap:butt;stroke-linejoin:round;stroke-miterlimit:4;stroke-dasharray:none;stroke-dashoffset:0;stroke-opacity:0.909449;paint-order:normal"
       d="m -96.593602,132.18512 v 8.33438 c 0,3.07816 2.478088,5.55624 5.55625,5.55624 h 38.893748 c 3.078162,0 5.55625,-2.47808 5.55625,-5.55624 v -8.33438 z"
       id="rect5205-3-6"
       inkscape:connector-curvature="0" /><text
       xml:space="preserve"
       transform="matrix(0.26458334,0,0,0.26458334,-100.01119,120.14281)"
       id="text1"
       style="font-size:38.6667px;line-height:0;text-align:center;writing-mode:lr-tb;direction:ltr;white-space:pre;shape-inside:url(#rect1);display:inline;fill:#000000;stroke-width:0.5"
       x="83.562073"
       y="0"
       inkscape:label="label"><tspan
         x="20.21883"
         y="84.659576"
         id="tspan2"><tspan
           style="font-weight:500;font-family:'Futura PT';-inkscape-font-specification:'Futura PT Medium';fill:#ffffff"
           id="tspan1">DIVERSITY</tspan></tspan></text><g
       style="fill:#222222;fill-opacity:1"
       id="g11"
       transform="matrix(0.12466415,0,0,0.12466415,-87.547427,100.5176)"><path
         d="m 51.464,54.173 c 11.123,0 20.18,-9.056 20.18,-20.18 0,-11.124 -9.056,-20.18 -20.18,-20.18 -11.124,0 -20.18,9.056 -20.18,20.18 0,11.124 9.057,20.18 20.18,20.18 z m 27.14,98.577 v 89.004 c 0,6.764 -5.483,12.247 -12.247,12.247 -6.763,0 -12.246,-5.482 -12.247,-12.245 l -0.008,-87.177 c 0,-0.01 0,-0.01 0,-0.02 0,-1.614 -1.329,-2.933 -2.953,-2.933 -1.624,0 -2.943,1.319 -2.943,2.953 v 87.175 c 0,6.764 -5.483,12.247 -12.247,12.247 h -0.058 c -6.763,0 -12.246,-5.483 -12.246,-12.247 V 90.932 c 0,-1.6 -1.202,-3.031 -2.8,-3.112 -1.704,-0.085 -3.107,1.265 -3.107,2.95 v 57.084 c 0,4.349 -3.526,7.875 -7.875,7.875 -4.349,0 -7.875,-3.526 -7.875,-7.875 V 85.711 c 0,-13.608 11.031,-24.639 24.639,-24.639 h 43.828 c -1.278,3.492 -1.977,7.26 -1.977,11.189 v 66.343 c 0.002,6.553 4.241,12.123 10.116,14.146 z M 181.603,72.231 v 66.379 c 0,5.006 -4.058,9.062 -9.062,9.062 -0.201,0 -0.403,-0.007 -0.606,-0.02 -4.816,-0.313 -8.457,-4.528 -8.457,-9.354 V 75.859 c 0,-1.632 -1.324,-2.953 -2.952,-2.953 -2.01,0 -2.953,1.47 -2.953,3.065 v 164.703 c 0,7.36 -5.966,13.326 -13.326,13.326 -7.348,0 -13.31,-5.949 -13.326,-13.297 l -0.209,-93.596 c 0,-1.46 -1.251,-2.711 -2.711,-2.711 -1.969,0 -2.712,1.569 -2.712,2.899 l -0.2,93.402 c -0.016,7.352 -5.979,13.303 -13.33,13.303 -7.362,0 -13.33,-5.968 -13.33,-13.33 V 75.851 c 0,-1.621 -1.314,-2.935 -2.935,-2.935 -1.863,0 -2.935,1.62 -2.935,3.04 -0.006,10.31 -0.027,44.332 -0.033,62.661 -0.002,5.001 -4.056,9.05 -9.056,9.05 h -0.007 c -5.006,0 -9.063,-4.058 -9.063,-9.063 V 72.261 C 74.4,57.5 86.366,45.533 101.128,45.533 h 53.364 v 10e-4 c 14.492,0 26.693,11.888 27.111,26.697 z m 72.398,13.48 v 62.144 c 0,4.349 -3.526,7.875 -7.875,7.875 -4.349,0 -7.875,-3.526 -7.875,-7.875 V 90.771 c 0,-1.685 -1.403,-3.035 -3.107,-2.949 -1.598,0.081 -2.8,1.512 -2.8,3.112 v 150.82 c 0,6.764 -5.483,12.247 -12.247,12.247 h -0.058 c -6.764,0 -12.247,-5.483 -12.247,-12.247 v -87.175 c 0,-1.634 -1.319,-2.953 -2.943,-2.953 -1.624,0 -2.953,1.319 -2.953,2.933 0,0.01 0,0.01 0,0.02 l -0.008,87.177 c -0.001,6.763 -5.484,12.245 -12.247,12.245 -6.764,0 -12.247,-5.483 -12.247,-12.247 v -88.998 c 5.874,-2.023 10.113,-7.591 10.113,-14.144 V 72.23 72.146 l -0.002,-0.083 c -0.109,-3.857 -0.886,-7.557 -2.211,-10.992 h 44.066 c 13.61,0.001 24.641,11.032 24.641,24.64 z M 204.574,9.104 227.576,32.106 204.574,55.108 181.572,32.106 Z M 100.066,2 128,39.688 155.933,2 Z"
         id="path1-5"
         style="fill:#222222;fill-opacity:1" /></g></g><style
     type="text/css"
     id="style1">
	.st0{fill:#000000;}
</style></svg>
