<?xml version="1.0" encoding="UTF-8" standalone="no"?>
<!-- Created with Inkscape (http://www.inkscape.org/) -->

<svg
   width="200"
   height="200"
   viewBox="0 0 52.916668 52.916666"
   version="1.1"
   id="svg8"
   inkscape:version="1.4.3 (0d15f75042, 2025-12-25)"
   sodipodi:docname="libertarian.svg"
   xml:space="preserve"
   xmlns:inkscape="http://www.inkscape.org/namespaces/inkscape"
   xmlns:sodipodi="http://sodipodi.sourceforge.net/DTD/sodipodi-0.dtd"
   xmlns="http://www.w3.org/2000/svg"
   xmlns:svg="http://www.w3.org/2000/svg"
   xmlns:rdf="http://www.w3.org/1999/02/22-rdf-syntax-ns#"
   xmlns:cc="http://creativecommons.org/ns#"
   xmlns:dc="http://purl.org/dc/elements/1.1/"><defs
     id="defs2"><rect
       x="18.622405"
       y="74.489621"
       width="178.93288"
       height="47.348386"
       id="rect1" /><inkscape:path-effect
       effect="envelope"
       id="path-effect4658"
       is_visible="true"
       yy="true"
       xx="true"
       bendpath1="m -199.08406,108.42369 h 7.0057"
       bendpath2="m -192.07836,108.42369 v 6.75242"
       bendpath3="m -199.08406,115.17611 h 7.0057"
       bendpath4="m -199.08406,108.42369 v 6.75242" /><inkscape:path-effect
       effect="bend_path"
       id="path-effect4656"
       is_visible="true"
       bendpath="m -192.00142,114.60623 c 2.12577,-0.53066 4.48261,0.85111 7.0057,0"
       prop_scale="1"
       scale_y_rel="false"
       vertical="false"
       bendpath-nodetypes="cc" /><inkscape:path-effect
       effect="bounding_box"
       id="path-effect4654"
       is_visible="true"
       linkedpath=""
       visualbounds="false" /><style
       id="style1-7">.cls-1{fill:none;}</style></defs><sodipodi:namedview
     id="base"
     pagecolor="#ffffff"
     bordercolor="#666666"
     borderopacity="1.0"
     inkscape:pageopacity="0.0"
     inkscape:pageshadow="2"
     inkscape:zoom="2.2082833"
     inkscape:cx="54.340854"
     inkscape:cy="88.756728"
     inkscape:document-units="px"
     inkscape:current-layer="layer1"
     showgrid="false"
     fit-margin-top="0"
     fit-margin-left="0"
     fit-margin-right="0"
     fit-margin-bottom="0"
     inkscape:window-width="1366"
     inkscape:window-height="696"
     inkscape:window-x="0"
     inkscape:window-y="0"
     inkscape:window-maximized="1"
     showguides="false"
     inkscape:object-nodes="true"
     units="px"
     inkscape:snap-page="true"
     inkscape:showpageshadow="0"
     inkscape:pagecheckerboard="0"
     inkscape:deskcolor="#505050" /><metadata
     id="metadata5"><rdf:RDF><cc:Work
         rdf:about=""><dc:format>image/svg+xml</dc:format><dc:type
           rdf:resource="http://purl.org/dc/dcmitype/StillImage" /></cc:Work></rdf:RDF></metadata><g
     inkscape:label="Layer 1"
     inkscape:groupmode="layer"
     id="layer1"
     transform="translate(98.048812,-95.14345)"><rect
       y="95.143448"
       x="-98.048813"
       height="52.916668"
       width="52.916668"
       id="rect5163"
       style="fill:#222222;fill-opacity:1;fill-rule:nonzero;stroke:none;stroke-width:0.5;stroke-linecap:butt;stroke-linejoin:round;stroke-miterlimit:4;stroke-dasharray:none;stroke-dashoffset:0;stroke-opacity:0.909449;paint-order:normal"
       rx="3.96875"
       ry="3.96875" /><rect
       style="fill:#ffef4b;fill-opacity:1;fill-rule:nonzero;stroke:none;stroke-width:0.5;stroke-linecap:butt;stroke-linejoin:round;stroke-miterlimit:4;stroke-dasharray:none;stroke-dashoffset:0;stroke-opacity:0.909449;paint-order:normal"
       id="rect5165"
       width="47.625"
       height="47.625"
       x="-95.402977"
       y="97.789284"
       rx="2.6458333"
       ry="2.6458333" /><path
       style="fill:#222222;fill-opacity:1;fill-rule:nonzero;stroke:none;stroke-width:0.5;stroke-linecap:butt;stroke-linejoin:round;stroke-miterlimit:4;stroke-dasharray:none;stroke-dashoffset:0;stroke-opacity:0.909449;paint-order:normal"
       d="m -96.593602,132.18512 v 8.33438 c 0,3.07816 2.478088,5.55624 5.55625,5.55624 h 38.893748 c 3.078162,0 5.55625,-2.47808 5.55625,-5.55624 v -8.33438 z"
       id="rect5205-3-6"
       inkscape:connector-curvature="0" /><text
       xml:space="preserve"
       transform="matrix(0.26458334,0,0,0.26458334,-100.01119,119.99358)"
       id="text1"
       style="font-size:30.6667px;line-height:0;text-align:center;writing-mode:lr-tb;direction:ltr;white-space:pre;shape-inside:url(#rect1);display:inline;fill:#000000;stroke-width:0.5"
       x="83.562073"
       y="0"
       inkscape:label="label"><tspan
         x="20.244103"
         y="82.555577"
         id="tspan2"><tspan
           style="font-weight:500;font-family:'Futura PT';-inkscape-font-specification:'Futura PT Medium';fill:#ffffff"
           id="tspan1">LIBERTARIAN</tspan></tspan></text><g
       fill="#ffffff"
       stroke="#000000"
       stroke-width="5"
       id="g3"
       transform="matrix(0.07488792,0,0,0.07488792,-90.312458,96.280686)"
       style="fill:#000000;fill-opacity:0;stroke:#212121;stroke-opacity:1"><path
         d="M 208,72 V 5 h 84 v 67 a 178,178 0 0 1 136,136 h 67 v 84 H 428 A 178,178 0 0 1 292,428 v 67 H 208 V 428 A 178,178 0 0 1 72,292 H 5 V 208 H 72 A 178,178 0 0 1 208,72 Z"
         id="path1"
         style="display:none;fill:#000000;fill-opacity:0;stroke:#212121;stroke-opacity:1" /><path
         stroke-width="56"
         d="m 251,108 a 142,142 0 1 1 -2,0 m 1,-90 V 482 M 18,250 h 464"
         id="path2"
         style="display:inline;fill:#000000;fill-opacity:0;stroke-width:55.7;stroke-dasharray:none;stroke:#212121;stroke-opacity:1" /><path
         d="m 160,210 a 99,99 0 0 1 50,-50 v 50 z m 180,0 a 99,99 0 0 0 -50,-50 v 50 z m 0,80 a 99,99 0 0 1 -50,50 v -50 z m -180,0 a 99,99 0 0 0 50,50 v -50 z"
         id="path3"
         style="display:none;fill:#000000;fill-opacity:0;stroke:#212121;stroke-opacity:1" /></g></g><style
     type="text/css"
     id="style1">
	.st0{fill:#000000;}
</style><style
     type="text/css"
     id="style1-3">
	.st0{fill:#000000;}
</style></svg>
