<?xml version="1.0" encoding="UTF-8" standalone="no"?>
<!-- Created with Inkscape (http://www.inkscape.org/) -->

<svg
   width="200"
   height="200"
   viewBox="0 0 52.916668 52.916666"
   version="1.1"
   id="svg8"
   inkscape:version="1.4.3 (0d15f75042, 2025-12-25)"
   sodipodi:docname="speciation.svg"
   xml:space="preserve"
   xmlns:inkscape="http://www.inkscape.org/namespaces/inkscape"
   xmlns:sodipodi="http://sodipodi.sourceforge.net/DTD/sodipodi-0.dtd"
   xmlns="http://www.w3.org/2000/svg"
   xmlns:svg="http://www.w3.org/2000/svg"
   xmlns:rdf="http://www.w3.org/1999/02/22-rdf-syntax-ns#"
   xmlns:cc="http://creativecommons.org/ns#"
   xmlns:dc="http://purl.org/dc/elements/1.1/"><defs
     id="defs2"><rect
       x="18.622405"
       y="74.489621"
       width="178.93288"
       height="47.348386"
       id="rect1" /><inkscape:path-effect
       effect="envelope"
       id="path-effect4658"
       is_visible="true"
       yy="true"
       xx="true"
       bendpath1="m -199.08406,108.42369 h 7.0057"
       bendpath2="m -192.07836,108.42369 v 6.75242"
       bendpath3="m -199.08406,115.17611 h 7.0057"
       bendpath4="m -199.08406,108.42369 v 6.75242" /><inkscape:path-effect
       effect="bend_path"
       id="path-effect4656"
       is_visible="true"
       bendpath="m -192.00142,114.60623 c 2.12577,-0.53066 4.48261,0.85111 7.0057,0"
       prop_scale="1"
       scale_y_rel="false"
       vertical="false"
       bendpath-nodetypes="cc" /><inkscape:path-effect
       effect="bounding_box"
       id="path-effect4654"
       is_visible="true"
       linkedpath=""
       visualbounds="false" /></defs><sodipodi:namedview
     id="base"
     pagecolor="#ffffff"
     bordercolor="#666666"
     borderopacity="1.0"
     inkscape:pageopacity="0.0"
     inkscape:pageshadow="2"
     inkscape:zoom="2.2561435"
     inkscape:cx="74.463348"
     inkscape:cy="108.59238"
     inkscape:document-units="px"
     inkscape:current-layer="g5175"
     showgrid="false"
     fit-margin-top="0"
     fit-margin-left="0"
     fit-margin-right="0"
     fit-margin-bottom="0"
     inkscape:window-width="1366"
     inkscape:window-height="696"
     inkscape:window-x="0"
     inkscape:window-y="0"
     inkscape:window-maximized="1"
     showguides="false"
     inkscape:object-nodes="true"
     units="px"
     inkscape:snap-page="true"
     inkscape:showpageshadow="0"
     inkscape:pagecheckerboard="0"
     inkscape:deskcolor="#505050" /><metadata
     id="metadata5"><rdf:RDF><cc:Work
         rdf:about=""><dc:format>image/svg+xml</dc:format><dc:type
           rdf:resource="http://purl.org/dc/dcmitype/StillImage" /></cc:Work></rdf:RDF></metadata><g
     inkscape:label="Layer 1"
     inkscape:groupmode="layer"
     id="layer1"
     transform="translate(98.048812,-95.14345)"><g
       style="stroke-width:0.5"
       transform="matrix(2,0,0,2,-98.048812,95.143449)"
       id="g5175"><rect
         y="-1.110223e-16"
         x="0"
         height="26.458334"
         width="26.458334"
         id="rect5163"
         style="opacity:1;fill:#222222;fill-opacity:1;fill-rule:nonzero;stroke:none;stroke-width:0.25;stroke-linecap:butt;stroke-linejoin:round;stroke-miterlimit:4;stroke-dasharray:none;stroke-dashoffset:0;stroke-opacity:0.90944878;paint-order:normal"
         rx="1.984375"
         ry="1.984375" /><rect
         style="opacity:1;fill:#d4aa00;fill-opacity:1;fill-rule:nonzero;stroke:none;stroke-width:0.25;stroke-linecap:butt;stroke-linejoin:round;stroke-miterlimit:4;stroke-dasharray:none;stroke-dashoffset:0;stroke-opacity:0.90944878;paint-order:normal"
         id="rect5165"
         width="23.8125"
         height="23.8125"
         x="1.322917"
         y="1.322917"
         rx="1.3229166"
         ry="1.3229166" /><path
         style="fill:#222222;fill-opacity:1;fill-rule:nonzero;stroke:none;stroke-width:0.25;stroke-linecap:butt;stroke-linejoin:round;stroke-miterlimit:4;stroke-dasharray:none;stroke-dashoffset:0;stroke-opacity:0.909449;paint-order:normal"
         d="m 0.72760496,18.520836 v 4.167188 c 0,1.539081 1.23904394,2.778124 2.77812494,2.778124 H 22.952604 c 1.539081,0 2.778125,-1.239043 2.778125,-2.778124 v -4.167188 z"
         id="rect5205-3-6"
         inkscape:connector-curvature="0" /><text
         xml:space="preserve"
         transform="matrix(0.13229167,0,0,0.13229167,-0.98119015,12.437504)"
         id="text1"
         style="font-size:32px;line-height:0;text-align:center;writing-mode:lr-tb;direction:ltr;white-space:pre;shape-inside:url(#rect1);display:inline;fill:#000000;stroke-width:0.5"
         x="83.562073"
         y="0"
         inkscape:label="label"><tspan
           x="21.848877"
           y="82.906234"
           id="tspan2"><tspan
             style="font-weight:500;font-family:'Futura PT';-inkscape-font-specification:'Futura PT Medium';fill:#ffffff"
             id="tspan1">SPECIATION</tspan></tspan></text></g><g
       style="display:inline;fill:#222222;fill-opacity:1"
       id="g8"
       transform="matrix(0.19051327,0,0,0.19051327,-96.077467,95.930381)"><path
         d="m 151.3,119.2 c 17.7,0 29.1,15.2 29.1,29.1 v 43 H 169 v -37.9 c 0,-4.2 -2.5,-7.6 -7,-7.6 -4.4,0 -6.9,3.5 -6.9,7.6 v 37.9 h -54.4 v -37.9 c 0,-3.7 -3.3,-7.6 -7,-7.6 -3.7,0 -6.9,2.7 -6.9,6.3 v 39.2 H 75.4 v -41.7 c 0,-16.7 13.6,-30.4 30.4,-30.4 m 45.5,-5.1 h -45.5 c -19.5,0 -35.4,15.9 -35.4,35.4 v 46.8 h 21.5 v -43 c 0,-0.9 0,-2.5 1.9,-2.5 1.9,0 1.9,1.7 1.9,2.5 v 43 h 64.5 v -43 c 0,-1.9 1,-2.5 1.9,-2.5 0.6,0 1.9,0.5 1.9,2.5 v 43 h 21.5 v -48.1 c -0.1,-18.8 -15.4,-34.1 -34.2,-34.1 z M 128.5,61.8 c 10.8,0 19.6,8.8 19.6,19.6 0,10.8 -8.8,19.6 -19.6,19.6 -10.8,0 -19.6,-8.8 -19.6,-19.6 0,-10.8 8.8,-19.6 19.6,-19.6 m 0,-5.1 v 0 c -13.6,0 -24.7,11 -24.7,24.7 v 0 c 0,13.6 11,24.7 24.7,24.7 v 0 c 13.6,0 24.7,-11 24.7,-24.7 v 0 c 0,-13.6 -11.1,-24.7 -24.7,-24.7 z m -67.2,91.5 0.1,48.2 H 41.2 v -45.5 h -5.1 c -0.1,-0.1 0,45.5 0,45.5 H 2 v -82.2 h 25.3 c 19,-0.1 34,15 34,34 z m 134.2,0.1 v 48.1 h 19 v -45.5 h 5.1 v 45.5 H 255 v -82.2 h -25.3 c -19,-0.1 -34.2,15.1 -34.2,34.1 z M 255,56.8 c -13.3,0.3 -24,11.2 -24,24.6 0,13.4 10.7,24.3 24,24.6 z M 2,106 C 15.3,105.7 26,94.8 26,81.4 26,68 15.3,57.1 2,56.8 Z"
         id="path1-3"
         style="fill:#222222;fill-opacity:1" /></g></g><style
     type="text/css"
     id="style1">
	.st0{fill:#000000;}
</style></svg>
