<?xml version="1.0" encoding="UTF-8" standalone="no"?>
<!-- Created with Inkscape (http://www.inkscape.org/) -->

<svg
   width="200"
   height="200"
   viewBox="0 0 52.916668 52.916666"
   version="1.1"
   id="svg8"
   inkscape:version="1.4.3 (0d15f75042, 2025-12-25)"
   sodipodi:docname="supremacy.svg"
   xml:space="preserve"
   xmlns:inkscape="http://www.inkscape.org/namespaces/inkscape"
   xmlns:sodipodi="http://sodipodi.sourceforge.net/DTD/sodipodi-0.dtd"
   xmlns="http://www.w3.org/2000/svg"
   xmlns:svg="http://www.w3.org/2000/svg"
   xmlns:rdf="http://www.w3.org/1999/02/22-rdf-syntax-ns#"
   xmlns:cc="http://creativecommons.org/ns#"
   xmlns:dc="http://purl.org/dc/elements/1.1/"><defs
     id="defs2"><rect
       x="18.622405"
       y="74.489621"
       width="178.93288"
       height="47.348386"
       id="rect1" /><inkscape:path-effect
       effect="envelope"
       id="path-effect4658"
       is_visible="true"
       yy="true"
       xx="true"
       bendpath1="m -199.08406,108.42369 h 7.0057"
       bendpath2="m -192.07836,108.42369 v 6.75242"
       bendpath3="m -199.08406,115.17611 h 7.0057"
       bendpath4="m -199.08406,108.42369 v 6.75242" /><inkscape:path-effect
       effect="bend_path"
       id="path-effect4656"
       is_visible="true"
       bendpath="m -192.00142,114.60623 c 2.12577,-0.53066 4.48261,0.85111 7.0057,0"
       prop_scale="1"
       scale_y_rel="false"
       vertical="false"
       bendpath-nodetypes="cc" /><inkscape:path-effect
       effect="bounding_box"
       id="path-effect4654"
       is_visible="true"
       linkedpath=""
       visualbounds="false" /><style
       id="style1-7">.cls-1{fill:none;}</style></defs><sodipodi:namedview
     id="base"
     pagecolor="#ffffff"
     bordercolor="#666666"
     borderopacity="1.0"
     inkscape:pageopacity="0.0"
     inkscape:pageshadow="2"
     inkscape:zoom="1.4897109"
     inkscape:cx="32.892289"
     inkscape:cy="116.80119"
     inkscape:document-units="px"
     inkscape:current-layer="layer1"
     showgrid="false"
     fit-margin-top="0"
     fit-margin-left="0"
     fit-margin-right="0"
     fit-margin-bottom="0"
     inkscape:window-width="1366"
     inkscape:window-height="696"
     inkscape:window-x="0"
     inkscape:window-y="0"
     inkscape:window-maximized="1"
     showguides="false"
     inkscape:object-nodes="true"
     units="px"
     inkscape:snap-page="true"
     inkscape:showpageshadow="0"
     inkscape:pagecheckerboard="0"
     inkscape:deskcolor="#505050" /><metadata
     id="metadata5"><rdf:RDF><cc:Work
         rdf:about=""><dc:format>image/svg+xml</dc:format><dc:type
           rdf:resource="http://purl.org/dc/dcmitype/StillImage" /></cc:Work></rdf:RDF></metadata><g
     inkscape:label="Layer 1"
     inkscape:groupmode="layer"
     id="layer1"
     transform="translate(98.048812,-95.14345)"><rect
       y="95.143448"
       x="-98.048813"
       height="52.916668"
       width="52.916668"
       id="rect5163"
       style="fill:#222222;fill-opacity:1;fill-rule:nonzero;stroke:none;stroke-width:0.5;stroke-linecap:butt;stroke-linejoin:round;stroke-miterlimit:4;stroke-dasharray:none;stroke-dashoffset:0;stroke-opacity:0.909449;paint-order:normal"
       rx="3.96875"
       ry="3.96875" /><rect
       style="fill:#ff8809;fill-opacity:1;fill-rule:nonzero;stroke:none;stroke-width:0.5;stroke-linecap:butt;stroke-linejoin:round;stroke-miterlimit:4;stroke-dasharray:none;stroke-dashoffset:0;stroke-opacity:0.909449;paint-order:normal"
       id="rect5165"
       width="47.625"
       height="47.625"
       x="-95.402977"
       y="97.789284"
       rx="2.6458333"
       ry="2.6458333" /><path
       style="fill:#222222;fill-opacity:1;fill-rule:nonzero;stroke:none;stroke-width:0.5;stroke-linecap:butt;stroke-linejoin:round;stroke-miterlimit:4;stroke-dasharray:none;stroke-dashoffset:0;stroke-opacity:0.909449;paint-order:normal"
       d="m -96.593602,132.18512 v 8.33438 c 0,3.07816 2.478088,5.55624 5.55625,5.55624 h 38.893748 c 3.078162,0 5.55625,-2.47808 5.55625,-5.55624 v -8.33438 z"
       id="rect5205-3-6"
       inkscape:connector-curvature="0" /><text
       xml:space="preserve"
       transform="matrix(0.26458334,0,0,0.26458334,-100.01119,120.01845)"
       id="text1"
       style="font-size:32px;line-height:0;text-align:center;writing-mode:lr-tb;direction:ltr;white-space:pre;shape-inside:url(#rect1);display:inline;fill:#000000;stroke-width:0.5"
       x="83.562073"
       y="0"
       inkscape:label="label"><tspan
         x="19.432831"
         y="82.906234"
         id="tspan2"><tspan
           style="font-weight:500;font-family:'Futura PT';-inkscape-font-specification:'Futura PT Medium';fill:#ffffff"
           id="tspan1">SUPREMACY</tspan></tspan></text><g
       style="fill:#222222;fill-opacity:1"
       id="g15"
       transform="matrix(0.06347286,0,0,0.06347286,-87.839673,99.841095)"><g
         id="g2"
         style="fill:#222222;fill-opacity:1">
	<g
   id="g1"
   style="fill:#222222;fill-opacity:1">
		<path
   d="m 26.856,184.445 c -21.624,9.733 -31.263,35.153 -21.531,56.776 3.835,8.52 10.11,15.169 17.624,19.516 L 48.176,222.39 C 56.251,210.116 70.858,204.728 84.391,207.786 75.302,184.888 49.064,174.45 26.856,184.445 Z"
   id="path1"
   style="fill:#222222;fill-opacity:1" />
	</g>
</g><g
         id="g4"
         style="fill:#222222;fill-opacity:1">
	<g
   id="g3"
   style="fill:#222222;fill-opacity:1">
		<path
   d="m 177.214,405.086 c -0.405,-3.316 -0.403,-2.874 -31.16,-114.609 -2.307,-8.383 -7.871,-15.497 -15.453,-19.755 -7.581,-4.26 -16.55,-5.31 -24.911,-2.919 L 72.064,283.877 93.08,251.933 c 5.905,-8.975 3.416,-21.037 -5.56,-26.942 -8.974,-5.906 -21.037,-3.416 -26.943,5.559 L 3.42,317.43 c -4.737,7.199 -4.171,16.657 1.388,23.243 5.559,6.584 14.788,8.724 22.681,5.261 l 58.804,-25.814 -25.125,18.737 16.224,54.949 -35.753,4.383 c -9.441,1.158 -17.237,7.928 -19.704,17.116 -2.468,9.187 0.888,18.953 8.48,24.684 l 89.133,67.297 c 10.29,7.77 24.928,5.724 32.695,-4.563 7.769,-10.29 5.725,-24.927 -4.564,-32.696 l -43.071,-32.519 52.279,-6.409 c 12.794,-1.571 21.897,-13.217 20.327,-26.013 z"
   id="path2"
   style="fill:#222222;fill-opacity:1" />
	</g>
</g><g
         id="g6"
         style="fill:#222222;fill-opacity:1">
	<g
   id="g5"
   style="fill:#222222;fill-opacity:1">
		<path
   d="m 227.437,212.518 c -2.808,0.162 -5.595,-0.04 -8.419,-0.641 l 8.581,8.542 c 6.167,6.138 16.141,6.117 22.281,-0.05 2.626,-2.638 4.115,-5.973 4.487,-9.405 z"
   id="path4"
   style="fill:#222222;fill-opacity:1" />
	</g>
</g><g
         id="g8"
         style="fill:#222222;fill-opacity:1">
	<g
   id="g7"
   style="fill:#222222;fill-opacity:1">
		<path
   d="m 225.955,149.192 -3.911,-11.128 c -0.782,-2.226 -3.222,-3.397 -5.447,-2.614 l -115.871,40.726 c -2.227,0.782 -3.397,3.222 -2.614,5.447 l 2.39,6.801 c 0.782,2.227 3.222,3.397 5.447,2.614 l 14.195,-4.989 3.808,10.833 c 0.782,2.227 3.222,3.397 5.447,2.614 l 36.105,-12.69 13.477,15.326 c 1.427,1.622 3.692,2.204 5.712,1.493 l 14.593,-5.129 c -1.945,-2.908 -3.427,-6.161 -4.327,-9.663 l -10.405,3.657 -8.315,-9.456 10.204,-3.586 8.241,8.204 c -0.345,-1.594 -0.576,-3.232 -0.673,-4.911 -0.907,-15.704 9.874,-32.276 31.944,-33.549 z"
   id="path6"
   style="fill:#222222;fill-opacity:1" />
	</g>
</g><g
         id="g10"
         style="fill:#222222;fill-opacity:1">
	<g
   id="g9"
   style="fill:#222222;fill-opacity:1">
		<path
   d="m 511.081,168.724 c -0.124,-24.732 -20.347,-44.854 -45.08,-44.854 -22.436,0 -62.794,0 -85.687,0 -11.454,0 -22.817,2.719 -33.006,7.953 -10.81,5.554 -26.904,14.073 -47.628,25.737 l -75.166,4.34 c -10.504,0.606 -18.526,9.612 -17.92,20.115 0.611,10.584 9.718,18.542 20.116,17.92 l 79.569,-4.593 c 2.897,-0.166 5.717,-0.994 8.247,-2.417 48.626,-27.373 45.978,-26.06 49.998,-27.658 0,190.012 -0.415,23.394 -0.415,323.875 0,12.625 10.235,22.858 22.86,22.858 12.625,0 22.86,-10.233 22.86,-22.858 V 306.425 h 9.869 v 182.716 c 0,12.625 10.235,22.858 22.86,22.858 12.625,0 22.86,-10.233 22.86,-22.858 l 0.009,-320.229 c 0,-2.078 1.679,-3.766 3.756,-3.779 2.079,-0.012 3.778,1.655 3.801,3.734 0,0.017 0,0.032 0,0.049 l 0.703,139.948 c 0.053,10.488 8.57,18.954 19.047,18.954 0.031,0 0.065,0 0.098,-10e-4 10.52,-0.053 19.007,-8.624 18.954,-19.145 z"
   id="path8"
   style="fill:#222222;fill-opacity:1" />
	</g>
</g><g
         id="g12"
         style="fill:#222222;fill-opacity:1">
	<g
   id="g11"
   style="fill:#222222;fill-opacity:1">
		<path
   d="m 452.545,78.355 c -5.337,10e-4 -10.229,-2.851 -12.862,-7.468 -7.607,3.306 -16.146,5.062 -24.992,5.062 -8.912,0 -17.505,-1.78 -25.147,-5.13 -2.624,4.66 -7.531,7.536 -12.902,7.536 h -1.764 c 2.478,19.726 19.3,34.989 39.699,34.989 20.399,0 37.22,-15.263 39.699,-34.989 z"
   id="path10"
   style="fill:#222222;fill-opacity:1" />
	</g>
</g><g
         id="g14"
         style="fill:#222222;fill-opacity:1">
	<g
   id="g13"
   style="fill:#222222;fill-opacity:1">
		<path
   d="M 461.78,62.987 C 460.171,54.307 456.214,32.889 456.214,32.091 456.214,14.367 437.624,0 414.691,0 392.806,0 374.89,13.087 373.295,29.684 h -0.128 l -5.798,33.339 c -0.324,1.862 1.113,3.567 3,3.567 h 6.273 c 1.128,0 2.165,-0.625 2.692,-1.623 l 5.562,-10.534 c 7.546,6.01 18.103,9.751 29.795,9.751 11.596,0 22.078,-3.678 29.611,-9.603 l 5.558,10.399 c 0.53,0.991 1.561,1.609 2.685,1.609 h 6.242 c 1.9,0.001 3.342,-1.725 2.993,-3.602 z"
   id="path12"
   style="fill:#222222;fill-opacity:1" />
	</g>
</g></g></g><style
     type="text/css"
     id="style1">
	.st0{fill:#000000;}
</style></svg>
