<?xml version="1.0" encoding="UTF-8" standalone="no"?>
<!-- Created with Inkscape (http://www.inkscape.org/) -->

<svg
   width="200"
   height="200"
   viewBox="0 0 52.916668 52.916666"
   version="1.1"
   id="svg8"
   inkscape:version="1.4.3 (0d15f75042, 2025-12-25)"
   sodipodi:docname="uniformity.svg"
   xml:space="preserve"
   xmlns:inkscape="http://www.inkscape.org/namespaces/inkscape"
   xmlns:sodipodi="http://sodipodi.sourceforge.net/DTD/sodipodi-0.dtd"
   xmlns="http://www.w3.org/2000/svg"
   xmlns:svg="http://www.w3.org/2000/svg"
   xmlns:rdf="http://www.w3.org/1999/02/22-rdf-syntax-ns#"
   xmlns:cc="http://creativecommons.org/ns#"
   xmlns:dc="http://purl.org/dc/elements/1.1/"><defs
     id="defs2"><rect
       x="18.622405"
       y="74.489621"
       width="178.93288"
       height="47.348386"
       id="rect1" /><inkscape:path-effect
       effect="envelope"
       id="path-effect4658"
       is_visible="true"
       yy="true"
       xx="true"
       bendpath1="m -199.08406,108.42369 h 7.0057"
       bendpath2="m -192.07836,108.42369 v 6.75242"
       bendpath3="m -199.08406,115.17611 h 7.0057"
       bendpath4="m -199.08406,108.42369 v 6.75242" /><inkscape:path-effect
       effect="bend_path"
       id="path-effect4656"
       is_visible="true"
       bendpath="m -192.00142,114.60623 c 2.12577,-0.53066 4.48261,0.85111 7.0057,0"
       prop_scale="1"
       scale_y_rel="false"
       vertical="false"
       bendpath-nodetypes="cc" /><inkscape:path-effect
       effect="bounding_box"
       id="path-effect4654"
       is_visible="true"
       linkedpath=""
       visualbounds="false" /></defs><sodipodi:namedview
     id="base"
     pagecolor="#ffffff"
     bordercolor="#666666"
     borderopacity="1.0"
     inkscape:pageopacity="0.0"
     inkscape:pageshadow="2"
     inkscape:zoom="2.1978654"
     inkscape:cx="85.992528"
     inkscape:cy="120.11655"
     inkscape:document-units="px"
     inkscape:current-layer="g5175"
     showgrid="false"
     fit-margin-top="0"
     fit-margin-left="0"
     fit-margin-right="0"
     fit-margin-bottom="0"
     inkscape:window-width="1366"
     inkscape:window-height="696"
     inkscape:window-x="0"
     inkscape:window-y="0"
     inkscape:window-maximized="1"
     showguides="false"
     inkscape:object-nodes="true"
     units="px"
     inkscape:snap-page="true"
     inkscape:showpageshadow="0"
     inkscape:pagecheckerboard="0"
     inkscape:deskcolor="#505050" /><metadata
     id="metadata5"><rdf:RDF><cc:Work
         rdf:about=""><dc:format>image/svg+xml</dc:format><dc:type
           rdf:resource="http://purl.org/dc/dcmitype/StillImage" /></cc:Work></rdf:RDF></metadata><g
     inkscape:label="Layer 1"
     inkscape:groupmode="layer"
     id="layer1"
     transform="translate(98.048812,-95.14345)"><g
       style="stroke-width:0.5"
       transform="matrix(2,0,0,2,-98.048812,95.143449)"
       id="g5175"><rect
         y="-1.110223e-16"
         x="0"
         height="26.458334"
         width="26.458334"
         id="rect5163"
         style="opacity:1;fill:#222222;fill-opacity:1;fill-rule:nonzero;stroke:none;stroke-width:0.25;stroke-linecap:butt;stroke-linejoin:round;stroke-miterlimit:4;stroke-dasharray:none;stroke-dashoffset:0;stroke-opacity:0.90944878;paint-order:normal"
         rx="1.984375"
         ry="1.984375" /><rect
         style="opacity:1;fill:#6f4f85;fill-opacity:1;fill-rule:nonzero;stroke:none;stroke-width:0.25;stroke-linecap:butt;stroke-linejoin:round;stroke-miterlimit:4;stroke-dasharray:none;stroke-dashoffset:0;stroke-opacity:0.90944878;paint-order:normal"
         id="rect5165"
         width="23.8125"
         height="23.8125"
         x="1.322917"
         y="1.322917"
         rx="1.3229166"
         ry="1.3229166" /><path
         style="fill:#222222;fill-opacity:1;fill-rule:nonzero;stroke:none;stroke-width:0.25;stroke-linecap:butt;stroke-linejoin:round;stroke-miterlimit:4;stroke-dasharray:none;stroke-dashoffset:0;stroke-opacity:0.909449;paint-order:normal"
         d="m 0.72760496,18.520836 v 4.167188 c 0,1.539081 1.23904394,2.778124 2.77812494,2.778124 H 22.952604 c 1.539081,0 2.778125,-1.239043 2.778125,-2.778124 v -4.167188 z"
         id="rect5205-3-6"
         inkscape:connector-curvature="0" /><text
         xml:space="preserve"
         transform="matrix(0.13229167,0,0,0.13229167,-0.98119015,12.425069)"
         id="text1"
         style="font-size:30.6667px;line-height:0;text-align:center;writing-mode:lr-tb;direction:ltr;white-space:pre;shape-inside:url(#rect1);display:inline;fill:#000000;stroke-width:0.5"
         x="83.562073"
         y="0"
         inkscape:label="label"><tspan
           x="19.109473"
           y="82.555577"
           id="tspan2"><tspan
             style="font-weight:500;font-family:'Futura PT';-inkscape-font-specification:'Futura PT Medium';fill:#ffffff"
             id="tspan1">UNIFORMITY</tspan></tspan></text><g
         style="fill:#222222;fill-opacity:1"
         id="g9"
         transform="matrix(0.06819375,0,0,0.06819375,4.5100487,1.8566306)"><path
           d="m 41,53.1 c 9.1,0 16.6,7.4 16.6,16.6 0,9.2 -7.4,16.5 -16.6,16.5 -9.2,0 -16.6,-7.4 -16.6,-16.6 0,-9.2 7.5,-16.5 16.6,-16.5 z m 43.7,0 c 9.1,0 16.6,7.4 16.6,16.6 0,9.2 -7.4,16.6 -16.6,16.6 -9.2,0 -16.6,-7.4 -16.6,-16.6 0,-9.2 7.5,-16.6 16.6,-16.6 z M 62.2,11.9 c 9.1,0 16.6,7.4 16.6,16.6 C 78.8,37.7 71.4,45 62.2,45 53,45 45.6,37.6 45.6,28.4 c 0,-9.2 7.5,-16.5 16.6,-16.5 z m 44.7,0 c 9.1,0 16.6,7.4 16.6,16.6 0,9.2 -7.4,16.5 -16.6,16.5 -9.2,0 -16.6,-7.4 -16.6,-16.6 0,-9.2 7.5,-16.5 16.6,-16.5 z m 42.4,0 c 9.1,0 16.6,7.4 16.6,16.6 0,9.2 -7.4,16.5 -16.6,16.5 -9.2,0 -16.6,-7.4 -16.6,-16.6 0,-9.2 7.5,-16.5 16.6,-16.5 z m 42.2,0 c 9.1,0 16.6,7.4 16.6,16.6 0,9.2 -7.4,16.5 -16.6,16.5 -9.2,0 -16.5,-7.4 -16.5,-16.5 0,-9.1 7.4,-16.6 16.5,-16.6 z m -20.4,41.2 c 9.1,0 16.6,7.4 16.6,16.6 0,9.2 -7.4,16.6 -16.6,16.6 -9.1,0 -16.6,-7.4 -16.6,-16.6 0,-9.2 7.4,-16.6 16.6,-16.6 z m -45,0 c 9.1,0 16.6,7.4 16.6,16.6 0,9.1 -7.4,16.6 -16.6,16.6 -9.2,0 -16.6,-7.4 -16.6,-16.6 0,-9.2 7.4,-16.6 16.6,-16.6 z m 88.5,0 c 9.1,0 16.6,7.4 16.6,16.6 0,9.1 -7.4,16.6 -16.6,16.6 -9.2,0 -16.6,-7.4 -16.6,-16.6 0.1,-9.2 7.5,-16.6 16.6,-16.6 z M 41.1,53.5 c 9,0 16.3,7.3 16.3,16.3 0,9 -7.3,16.3 -16.3,16.3 -9,0 -16.3,-7.3 -16.3,-16.3 0,-9 7.3,-16.3 16.3,-16.3 z M 59.5,89.3 H 40.9 22.2 C 10.9,89.3 3.7,98.6 3.7,110.4 V 164 c 0,9.7 12.7,9.7 12.7,0 v -50.2 c 0,-1.2 1,-2 2,-2 1.2,0 2,0.8 2,2 v 121.8 c 0,5 4,9.1 9.1,9.1 5,0 9.1,-4 9.1,-9.1 V 175 c 0,-1.2 1,-2 2,-2 H 41 c 1.2,0 2,1 2,2 v 60.6 c 0,5 4,9.1 9.1,9.1 5,0 9.1,-4 9.1,-9.1 V 113.7 c 0,-1.2 1,-2 2,-2 1.2,0 2,1 2,2 v 50.4 c 0,9.7 12.7,9.7 12.7,0 V 110.5 C 78.2,98.6 71.1,89.3 59.5,89.3 Z m 85.2,0 H 126 107.3 C 96,89.3 88.8,98.6 88.8,110.4 V 164 c 0,9.7 12.7,9.7 12.7,0 v -50.2 c 0,-1.2 1,-2 2,-2 1.2,0 2,0.8 2,2 v 121.8 c 0,5 4,9.1 9.1,9.1 5,0 9.1,-4 9.1,-9.1 V 175 c 0,-1.2 1,-2 2,-2 h 0.4 c 1.2,0 2,1 2,2 v 60.6 c 0,5 4,9.1 9.1,9.1 5,0 9.1,-4 9.1,-9.1 V 113.7 c 0,-1.2 1,-2 2,-2 1.2,0 2,1 2,2 v 50.4 c 0,9.7 12.7,9.7 12.7,0 v -53.6 c 0.4,-11.9 -6.7,-21.2 -18.3,-21.2 z m 89,0 H 215 196.3 c -11.3,0 -18.5,9.3 -18.5,21.1 V 164 c 0,9.7 12.7,9.7 12.7,0 v -50.2 c 0,-1.2 1,-2 2,-2 1.2,0 2,0.8 2,2 v 121.8 c 0,5 4,9.1 9.1,9.1 5,0 9.1,-4 9.1,-9.1 V 175 c 0,-1.2 1,-2 2,-2 h 0.4 c 1.2,0 2,1 2,2 v 60.6 c 0,5 4,9.1 9.1,9.1 5,0 9.1,-4 9.1,-9.1 V 113.7 c 0,-1.2 1,-2 2,-2 1.2,0 2,1 2,2 v 50.4 c 0,9.7 12.7,9.7 12.7,0 v -53.6 c 0.4,-11.9 -6.7,-21.2 -18.3,-21.2 z"
           id="path1"
           style="fill:#222222;fill-opacity:1" /></g></g></g><style
     type="text/css"
     id="style1">
	.st0{fill:#000000;}
</style></svg>
