<?xml version="1.0" encoding="UTF-8" standalone="no"?>
<!-- Created with Inkscape (http://www.inkscape.org/) -->

<svg
   width="200"
   height="200"
   viewBox="0 0 52.916668 52.916666"
   version="1.1"
   id="svg8"
   inkscape:version="1.4.3 (0d15f75042, 2025-12-25)"
   sodipodi:docname="universal.svg"
   xml:space="preserve"
   xmlns:inkscape="http://www.inkscape.org/namespaces/inkscape"
   xmlns:sodipodi="http://sodipodi.sourceforge.net/DTD/sodipodi-0.dtd"
   xmlns="http://www.w3.org/2000/svg"
   xmlns:svg="http://www.w3.org/2000/svg"
   xmlns:rdf="http://www.w3.org/1999/02/22-rdf-syntax-ns#"
   xmlns:cc="http://creativecommons.org/ns#"
   xmlns:dc="http://purl.org/dc/elements/1.1/"><defs
     id="defs2"><rect
       x="18.622405"
       y="74.489621"
       width="178.93288"
       height="47.348386"
       id="rect1" /><inkscape:path-effect
       effect="envelope"
       id="path-effect4658"
       is_visible="true"
       yy="true"
       xx="true"
       bendpath1="m -199.08406,108.42369 h 7.0057"
       bendpath2="m -192.07836,108.42369 v 6.75242"
       bendpath3="m -199.08406,115.17611 h 7.0057"
       bendpath4="m -199.08406,108.42369 v 6.75242" /><inkscape:path-effect
       effect="bend_path"
       id="path-effect4656"
       is_visible="true"
       bendpath="m -192.00142,114.60623 c 2.12577,-0.53066 4.48261,0.85111 7.0057,0"
       prop_scale="1"
       scale_y_rel="false"
       vertical="false"
       bendpath-nodetypes="cc" /><inkscape:path-effect
       effect="bounding_box"
       id="path-effect4654"
       is_visible="true"
       linkedpath=""
       visualbounds="false" /><style
       id="style1-7">.cls-1{fill:none;}</style></defs><sodipodi:namedview
     id="base"
     pagecolor="#ffffff"
     bordercolor="#666666"
     borderopacity="1.0"
     inkscape:pageopacity="0.0"
     inkscape:pageshadow="2"
     inkscape:zoom="1.4890749"
     inkscape:cx="27.533873"
     inkscape:cy="49.023725"
     inkscape:document-units="px"
     inkscape:current-layer="layer1"
     showgrid="false"
     fit-margin-top="0"
     fit-margin-left="0"
     fit-margin-right="0"
     fit-margin-bottom="0"
     inkscape:window-width="1366"
     inkscape:window-height="696"
     inkscape:window-x="0"
     inkscape:window-y="0"
     inkscape:window-maximized="1"
     showguides="false"
     inkscape:object-nodes="true"
     units="px"
     inkscape:snap-page="true"
     inkscape:showpageshadow="0"
     inkscape:pagecheckerboard="0"
     inkscape:deskcolor="#505050" /><metadata
     id="metadata5"><rdf:RDF><cc:Work
         rdf:about=""><dc:format>image/svg+xml</dc:format><dc:type
           rdf:resource="http://purl.org/dc/dcmitype/StillImage" /></cc:Work></rdf:RDF></metadata><g
     inkscape:label="Layer 1"
     inkscape:groupmode="layer"
     id="layer1"
     transform="translate(98.048812,-95.14345)"><rect
       y="95.143448"
       x="-98.048813"
       height="52.916668"
       width="52.916668"
       id="rect5163"
       style="fill:#222222;fill-opacity:1;fill-rule:nonzero;stroke:none;stroke-width:0.5;stroke-linecap:butt;stroke-linejoin:round;stroke-miterlimit:4;stroke-dasharray:none;stroke-dashoffset:0;stroke-opacity:0.909449;paint-order:normal"
       rx="3.96875"
       ry="3.96875" /><rect
       style="fill:#3bf029;fill-opacity:1;fill-rule:nonzero;stroke:none;stroke-width:0.5;stroke-linecap:butt;stroke-linejoin:round;stroke-miterlimit:4;stroke-dasharray:none;stroke-dashoffset:0;stroke-opacity:0.909449;paint-order:normal"
       id="rect5165"
       width="47.625"
       height="47.625"
       x="-95.402977"
       y="97.789284"
       rx="2.6458333"
       ry="2.6458333" /><path
       style="fill:#222222;fill-opacity:1;fill-rule:nonzero;stroke:none;stroke-width:0.5;stroke-linecap:butt;stroke-linejoin:round;stroke-miterlimit:4;stroke-dasharray:none;stroke-dashoffset:0;stroke-opacity:0.909449;paint-order:normal"
       d="m -96.593602,132.18512 v 8.33438 c 0,3.07816 2.478088,5.55624 5.55625,5.55624 h 38.893748 c 3.078162,0 5.55625,-2.47808 5.55625,-5.55624 v -8.33438 z"
       id="rect5205-3-6"
       inkscape:connector-curvature="0" /><text
       xml:space="preserve"
       transform="matrix(0.26458334,0,0,0.26458334,-100.01119,120.0682)"
       id="text1"
       style="font-size:34.6667px;line-height:0;text-align:center;writing-mode:lr-tb;direction:ltr;white-space:pre;shape-inside:url(#rect1);display:inline;fill:#000000;stroke-width:0.5"
       x="83.562073"
       y="0"
       inkscape:label="label"><tspan
         x="19.966126"
         y="83.607576"
         id="tspan2"><tspan
           style="font-weight:500;font-family:'Futura PT';-inkscape-font-specification:'Futura PT Medium';fill:#ffffff"
           id="tspan1">UNIVERSAL</tspan></tspan></text><g
       style="fill:#222222;fill-opacity:1"
       id="g16"
       transform="matrix(0.96485819,0,0,0.96485819,-87.028209,99.69837)"><path
         d="M 32.032,16 C 32.032,7.499 25.355,0.528 16.96,0.031 16.787,0.012 16.614,-0.001 16.437,-0.001 c -0.052,0 -0.104,0.005 -0.156,0.007 C 16.188,0.004 16.095,-0.001 16,-0.001 7.16,-0.001 -0.032,7.177 -0.032,16 c 0,8.823 7.192,16.001 16.032,16.001 0.094,0 0.188,-0.006 0.281,-0.008 0.052,0.002 0.104,0.008 0.156,0.008 0.176,0 0.349,-0.012 0.523,-0.032 C 25.355,31.472 32.032,24.501 32.032,16 Z m -2.983,5.151 c -0.551,-0.16 -1.935,-0.507 -4.377,-0.794 0.202,-1.381 0.313,-2.84 0.313,-4.357 0,-1.196 -0.069,-2.354 -0.197,-3.469 3.094,-0.37 4.45,-0.835 4.54,-0.867 l -0.372,-1.05 c 0.695,1.659 1.08,3.478 1.08,5.386 0,1.818 -0.352,3.555 -0.987,5.151 z M 8.921,16 c 0,-1.119 0.074,-2.212 0.21,-3.263 1.621,0.127 3.561,0.222 5.839,0.243 v 6.939 C 12.751,19.94 10.856,20.03 9.261,20.153 9.041,18.834 8.921,17.438 8.921,15.999 Z M 16.967,2.132 c 2.452,0.711 4.552,4.115 5.492,8.628 -1.512,0.12 -3.332,0.209 -5.492,0.229 z m -1.996,0.024 v 8.832 c -2.136,-0.021 -3.965,-0.109 -5.502,-0.226 0.96,-4.457 3.076,-7.836 5.502,-8.606 z m 0,19.757 v 7.929 c -2.263,-0.718 -4.256,-3.705 -5.293,-7.719 1.492,-0.11 3.253,-0.189 5.292,-0.21 z m 1.996,7.955 v -7.955 c 2.061,0.02 3.814,0.102 5.288,0.217 -1.019,4.067 -3,7.076 -5.288,7.738 z m 0,-9.948 v -6.939 c 2.291,-0.021 4.218,-0.118 5.818,-0.25 0.131,1.053 0.203,2.147 0.203,3.268 0,1.442 -0.116,2.84 -0.329,4.16 -1.575,-0.128 -3.462,-0.219 -5.692,-0.24 z M 28.588,9.81 C 28.286,9.904 27.024,10.263 24.494,10.561 23.93,7.563 22.91,5 21.584,3.149 24.632,4.474 27.119,6.846 28.589,9.81 Z M 11.213,2.831 C 9.581,4.704 8.25,7.399 7.522,10.585 5.257,10.34 3.899,10.051 3.356,9.92 4.941,6.65 7.763,4.084 11.212,2.832 Z m -8.599,8.956 c 0.385,0.104 1.841,0.467 4.549,0.766 -0.155,1.107 -0.24,2.26 -0.24,3.447 0,1.509 0.136,2.96 0.383,4.334 C 4.981,20.585 3.551,20.886 2.91,21.04 2.303,19.474 1.966,17.776 1.966,15.999 c 0,-1.467 0.228,-2.883 0.649,-4.213 z m 1.17,11.099 c 0.727,-0.154 2.029,-0.39 3.956,-0.591 0.759,2.803 1.993,5.175 3.473,6.874 -3.16,-1.148 -5.79,-3.398 -7.429,-6.282 v 0 z m 17.799,5.963 c 1.195,-1.665 2.14,-3.907 2.728,-6.525 1.982,0.227 3.226,0.494 3.853,0.652 -1.5,2.596 -3.808,4.669 -6.581,5.873 z"
         id="path1"
         style="fill:#222222;fill-opacity:1" /></g></g><style
     type="text/css"
     id="style1">
	.st0{fill:#000000;}
</style><style
     type="text/css"
     id="style1-3">
	.st0{fill:#000000;}
</style></svg>
